# xmcd CD database file
#
# Track frame offsets:
#	150
#	20587
#	35868
#	60033
#	76895
#	103145
#	115268
#	136624
#	158444
#	175218
#	187587
#
# Disc length: 2687 seconds
#
# Revision: 0
# Processed by: cddbd v1.5.2PL0 Copyright (c) Steve Scherf et al.
# Submitted via: CDex 1.70beta2
#
DISCID=790a7d0b
DTITLE=Nina Van Horn - From Huntsville to Jordan
DYEAR=2006
DGENRE=Blues
TTITLE0=Feeling for sale
TTITLE1=You changed
TTITLE2=Huntsville 6.15 pm
TTITLE3=Bayou love child
TTITLE4=Out of the rain
TTITLE5=Say it to my face
TTITLE6=Good bye New Orleans
TTITLE7=So what ?
TTITLE8=Get away Jordan
TTITLE9=Always french in bed
TTITLE10=Some girls
EXTD=YEAR: 2006
EXTT0=
EXTT1=
EXTT2=
EXTT3=
EXTT4=
EXTT5=
EXTT6=
EXTT7=
EXTT8=
EXTT9=
EXTT10=
PLAYORDER=
